<svg width="82" height="81" viewBox="0 0 82 81" fill="none" xmlns="http://www.w3.org/2000/svg">
<rect width="82" height="81" rx="40.5" fill="white" fill-opacity="0.2"/>
<rect x="0.5" y="0.5" width="81" height="80" rx="40" stroke="black" stroke-opacity="0.13"/>
<g clip-path="url(#clip0_419_5026)">
<path fill-rule="evenodd" clip-rule="evenodd" d="M23.7363 43.8486C23.1364 43.4727 22.6942 42.1757 22.6942 40.6343C22.6942 40.5777 22.6944 40.5219 22.6958 40.4663L22.6963 40.467C21.0272 40.2047 19.8214 39.4862 19.7903 38.6361L19.7856 38.6462C19.3772 39.1538 19.1441 39.7406 19.1441 40.3658C19.1441 42.2058 21.1637 43.7133 23.7256 43.8467L23.7363 43.8486ZM18.3723 40.4999C18.3723 38.4414 20.9344 36.7721 24.0948 36.7721C27.2553 36.7721 29.8174 38.4414 29.8174 40.4999C29.8174 42.5587 27.2553 44.228 24.0948 44.228C20.9344 44.228 18.3723 42.5587 18.3723 40.4999ZM24.095 37.31C24.7052 37.31 25.2243 38.2357 25.4166 39.5272L25.4171 39.5251C26.6043 39.3404 27.4353 38.9142 27.4353 38.418C27.4353 37.7524 25.9397 37.2133 24.095 37.2133C22.2505 37.2133 20.7549 37.7524 20.7549 38.418C20.7549 38.9142 21.5859 39.3401 22.7729 39.5251L22.7736 39.5272C22.966 38.2357 23.485 37.31 24.095 37.31ZM24.4644 43.8464C27.0262 43.713 29.0461 42.2055 29.0461 40.3656C29.0461 39.7403 28.8127 39.1535 28.4047 38.6459L28.3996 38.6359C28.3689 39.486 27.163 40.2045 25.4937 40.4668L25.4944 40.4661C25.4956 40.5217 25.4961 40.5775 25.4961 40.6341C25.4961 42.1755 25.0536 43.4725 24.4539 43.8484L24.4644 43.8464ZM24.095 39.6229C24.3599 39.6232 24.6246 39.6119 24.8885 39.589L24.8882 39.5893C24.7618 38.7617 24.4544 38.1772 24.0952 38.1772C23.7361 38.1772 23.4289 38.7617 23.3022 39.5893L23.302 39.589C23.5657 39.6118 23.8303 39.6231 24.095 39.6229ZM24.095 42.6885C24.5544 42.6885 24.9293 41.7325 24.9491 40.5338L24.9515 40.5346C24.3818 40.587 23.8084 40.587 23.2387 40.5346L23.2411 40.5338C23.2609 41.7325 23.6356 42.6885 24.095 42.6885ZM47.5732 40.4999C47.5732 38.9266 48.849 37.6508 50.4224 37.6508C51.9965 37.6508 53.272 38.9266 53.272 40.4999C53.272 42.0738 51.9963 43.3491 50.4224 43.3491C48.849 43.3491 47.5732 42.0738 47.5732 40.4999ZM50.4224 42.3043C51.3011 42.3043 52.0137 41.4963 52.0137 40.4997C52.0137 39.5034 51.3011 38.6953 50.4224 38.6953C49.5437 38.6953 48.8316 39.5034 48.8316 40.4997C48.8316 41.4965 49.544 42.3043 50.4224 42.3043ZM56.5052 38.8378V43.2198H55.3043V38.8378H55.3086H53.6298V37.8472H58.1798V38.8378H56.5052ZM59.6321 42.011L59.6312 42.0122L59.1706 43.22H57.7681L59.9849 37.8472H61.4792L63.6955 43.22H62.2935L61.8329 42.0122L61.8315 42.011H59.6321ZM60.732 41.1042H61.4876L61.4871 41.1044L60.7371 39.138H60.7268L59.9767 41.1044L59.9763 41.1042H60.732ZM34.375 38.8378V43.2198H33.1744V38.8378H33.1787H31.4996V37.8472H36.0498V38.8378H34.375ZM36.357 40.4999C36.357 38.9266 37.6328 37.6508 39.2066 37.6508C40.7802 37.6508 42.056 38.9266 42.056 40.4999C42.056 42.0738 40.7802 43.3491 39.2066 43.3491C37.6328 43.3491 36.357 42.0738 36.357 40.4999ZM39.2066 42.3043C40.0851 42.3043 40.7977 41.4963 40.7977 40.4997C40.7977 39.5034 40.0851 38.6953 39.2066 38.6953C38.3279 38.6953 37.6156 39.5034 37.6156 40.4997C37.6156 41.4965 38.3279 42.3043 39.2066 42.3043ZM44.8143 43.2198H45.4231V41.1798L47.5176 37.8472H46.1156L44.8143 40.1055L43.5134 37.8472H42.1114L44.2057 41.1798V43.2198H44.8143Z" fill="#CC2229"/>
</g>
<defs>
<clipPath id="clip0_419_5026">
<rect width="46" height="46" fill="white" transform="translate(18 17.5)"/>
</clipPath>
</defs>
</svg>
