<svg width="82" height="81" viewBox="0 0 82 81" fill="none" xmlns="http://www.w3.org/2000/svg">
<rect width="82" height="81" rx="40.5" fill="white" fill-opacity="0.2"/>
<rect x="0.5" y="0.5" width="81" height="80" rx="40" stroke="black" stroke-opacity="0.13"/>
<g clip-path="url(#clip0_419_5026)">
<path fill-rule="evenodd" clip-rule="evenodd" d="M39.5743 40.2558H42.4258V40.907H39.5743V40.2558ZM39.9264 41.1675H42.0914V42.5188H39.9264V41.1675ZM36.7581 37.2274H45.2597V37.5531H36.7581V37.2274ZM36.3004 37.8461H45.6998V38.1718H36.3004V37.8461ZM36.2828 36.625H45.6822V36.9507H36.2828V36.625ZM42.4786 38.8718C42.0034 39.2626 42.0034 39.979 42.0034 39.979H39.9792C39.9792 39.979 39.9792 39.2626 39.5039 38.8718C39.1695 38.5951 38.7647 38.5299 38.7647 38.5299C38.5006 38.4811 38.5006 38.4485 38.5006 38.4323H43.4467C43.4467 38.4323 43.4467 38.4811 43.1827 38.5299C43.2179 38.5462 42.8131 38.5951 42.4786 38.8718ZM36.7933 38.4485H37.8142C37.8142 39.0021 37.4269 39.2626 36.7933 39.1323V38.4485ZM40.4016 29.4287C40.8065 28.6798 40.8945 27.5727 41.0001 27.5564C41.1057 27.5727 41.1761 28.6961 41.5809 29.4287C41.9682 30.1288 42.7955 30.7312 42.7427 30.7964C42.6899 30.8778 42.2322 30.6661 42.0034 30.5684C41.6338 30.4056 41.3345 30.2916 41.3345 30.2916C41.3345 30.2916 41.1937 32.0663 41.6514 33.7107C42.0386 35.0458 42.9539 36.2831 43.0419 36.3808H41.8626L41.757 36.218C41.4401 35.697 41.2113 35.2574 41.0001 34.4759C40.7713 35.2411 40.5424 35.697 40.2256 36.218L40.12 36.3808H38.9407C39.0287 36.2669 39.944 35.0458 40.3312 33.7107C40.8065 32.0663 40.6481 30.2916 40.6481 30.2916C40.6481 30.2916 40.3488 30.4219 39.9792 30.5684C39.7504 30.6661 39.2927 30.8778 39.2399 30.7964C39.2047 30.7312 40.032 30.1288 40.4016 29.4287ZM36.7581 36.3808C36.7581 36.2506 36.6701 34.4434 36.23 33.0269C35.7372 31.4802 34.7163 30.5521 34.7867 30.4545C34.8571 30.373 35.6844 30.5196 36.3004 30.9266C36.9693 31.3499 37.6206 32.05 37.5677 32.0989C37.5325 32.1314 37.3213 31.9523 36.8989 31.8221C36.4764 31.6755 36.2828 31.7081 36.2828 31.7081C36.2828 31.7081 37.0045 32.799 37.3565 33.9875C37.6558 34.9806 37.8142 36.2669 37.8142 36.3808H36.7581ZM45.2421 36.3808C45.2421 36.2506 45.3125 34.4434 45.7702 33.0269C46.263 31.4802 47.2839 30.5521 47.2135 30.4545C47.1607 30.373 46.3158 30.5196 45.6998 30.9266C45.0309 31.3499 44.3796 32.05 44.4324 32.0989C44.4676 32.1314 44.6789 31.9523 45.0837 31.8221C45.5237 31.6755 45.6998 31.7081 45.6998 31.7081C45.6998 31.7081 44.9781 32.799 44.626 33.9875C44.3268 34.9806 44.1684 36.2669 44.1684 36.3808H45.2421ZM45.2069 38.4485H44.186C44.186 39.0021 44.5732 39.2626 45.2069 39.1323V38.4485Z" fill="black"/>
<path d="M56.0671 48.1196L55.1694 50.2524H56.8944L56.0671 48.1196ZM54.6766 51.4084C54.5358 51.7178 54.3773 52.1248 54.3773 52.4504C54.3773 52.776 54.7118 52.8412 54.9758 52.89L55.3982 52.9226V53.2319H52.7756V52.9388C53.3036 52.8412 53.5148 52.7272 53.7437 52.2876C53.8141 52.1573 53.8845 51.9945 53.9549 51.7992L54.1309 51.3921L55.8031 47.4846L55.6447 47.0613H56.7888L58.5314 51.3921L58.8306 52.1411C58.901 52.3039 59.0066 52.6295 59.165 52.7598C59.2882 52.8737 59.4818 52.9063 59.8867 52.9226V53.2319H56.7184V52.9226C57.2816 52.9063 57.7041 52.89 57.7041 52.5481C57.7041 52.3527 57.6161 52.0597 57.4928 51.8154L57.3344 51.3921L57.0704 50.6758H54.9582L54.6766 51.4084ZM47.7591 47.5335C47.5303 47.5335 47.2838 47.566 47.143 47.566V50.3501H47.7767C48.0935 50.3501 48.3927 50.3176 48.692 50.1873C49.0264 50.0245 49.308 49.6826 49.308 48.9825C49.308 47.8428 48.4103 47.5335 47.7591 47.5335ZM47.143 51.4084V52.0108C47.143 52.7923 47.231 52.9388 47.8295 52.9388H48.3047V53.2482H44.9428V52.9388C45.9285 52.9714 45.9989 52.7272 45.9989 52.1899V48.315C45.9989 47.6963 45.8933 47.6963 44.9428 47.6475V47.3381C45.5941 47.273 46.4565 47.1916 47.5831 47.1916C48.0935 47.1916 50.4873 47.1916 50.4873 48.9337C50.4873 49.6338 50.1353 50.0734 49.484 50.3664C49.3432 50.4315 49.2024 50.4641 49.0968 50.5129C49.22 50.6269 49.3256 50.7246 49.4312 50.8549C49.5193 50.9851 49.6249 51.1479 49.7657 51.4247L49.9769 51.848C50.4697 52.776 50.7338 52.9551 51.2794 53.0528V53.3622C50.3289 53.3947 49.5721 53.0691 48.956 52.1899C48.868 52.0759 48.6744 51.7503 48.4807 51.4247C48.3047 51.1154 48.1111 50.8223 48.0407 50.7083H47.143V51.4084ZM23.8207 48.1196L22.923 50.2524H24.648L23.8207 48.1196ZM22.4301 51.4084C22.3069 51.7178 22.1485 52.1248 22.1485 52.4504C22.1485 52.776 22.4653 52.8412 22.747 52.89L23.1518 52.9226V53.2319H20.5468V52.9388C21.0924 52.8412 21.286 52.7272 21.5149 52.2876L21.7261 51.7992L21.9021 51.3921L23.5919 47.4846L23.4334 47.0613H24.5776L26.3201 51.3921L26.6194 52.1411C26.6898 52.3039 26.7954 52.6295 26.9538 52.7598C27.0946 52.8737 27.2706 52.9063 27.6931 52.9226V53.2319H24.4895V52.9226C25.0352 52.9063 25.4752 52.89 25.4752 52.5481C25.4752 52.3527 25.3696 52.0597 25.264 51.8154L25.1056 51.3921L24.824 50.6758H22.7294L22.4301 51.4084ZM71.8559 51.4084V52.0434C71.8559 52.776 72.0671 52.89 73 52.9388V53.2482H69.6733V52.9388C70.4653 52.89 70.4829 52.8737 70.571 52.7272C70.7294 52.4993 70.7294 51.7666 70.7294 51.4735V48.4615C70.7294 47.7289 70.571 47.6312 69.6205 47.566V47.2567H72.9472V47.566C71.8559 47.5986 71.8383 47.7451 71.8383 48.7383V51.4084H71.8559ZM64.6568 51.4084V52.1085C64.6568 52.5155 64.692 52.6946 64.8504 52.7923C64.9384 52.8412 65.044 52.8737 65.2024 52.89C65.3608 52.9063 65.5721 52.9226 65.8537 52.9226V53.2319H62.2805V52.9226C62.5974 52.9063 62.8086 52.89 62.967 52.89C63.1254 52.8574 63.2486 52.8412 63.319 52.7923C63.4598 52.7109 63.495 52.5318 63.495 52.1736V47.6475H62.4213C61.9989 47.6475 61.8229 47.68 61.7173 47.7451C61.6293 47.794 61.5765 47.8591 61.5236 47.9894C61.4708 48.1196 61.418 48.315 61.2948 48.6569H60.978L61.1188 47.0776H61.3828C61.4884 47.2404 61.5765 47.2567 61.7525 47.273H66.1529C66.6282 47.273 66.681 47.2404 66.7514 47.0776H67.0154L67.1738 48.6569H66.8394C66.6106 47.6637 66.3993 47.6475 65.8537 47.6475H64.6568V51.4084ZM39.011 51.4084V52.3039C39.011 52.8574 39.0462 52.8574 39.6447 52.8574H40.7712C41.4224 52.8574 41.7569 52.7598 42.0385 51.7178H42.3905L42.2321 53.2156H36.8108V52.9063C37.7789 52.9388 37.8493 52.6946 37.8493 52.1574V48.2987C37.8493 47.6312 37.6557 47.5172 36.8108 47.5335V47.2567H41.9505L42.0209 48.6243H41.6865C41.5104 47.7126 41.2816 47.6475 40.5776 47.6475H38.9934V50.0245H40.56C41.088 50.0245 41.2288 50.0245 41.3168 49.2919H41.6689V51.1642H41.3168C41.2816 50.4153 41.176 50.3827 40.4543 50.3827H38.9934V51.4084H39.011ZM34.0473 51.4084C34.0649 51.5061 34.0825 51.6201 34.0825 51.7178C34.0825 52.6295 33.2904 53.4436 32.0583 53.4436C31.8647 53.4436 31.7415 53.4273 31.5655 53.411C31.3894 53.3784 31.1606 53.3133 30.7734 53.2156C30.703 53.1831 30.6502 53.1831 30.5974 53.1831C30.4741 53.1831 30.4389 53.2156 30.4389 53.3133H30.1221L29.9285 51.7666H30.2805C30.7206 52.9388 31.6359 53.0854 31.9351 53.0854C32.3399 53.0854 33.1496 52.8412 33.1496 52.0597C33.1496 51.7992 33.0616 51.5875 32.9032 51.3921C32.6392 51.0665 32.1639 50.806 31.5127 50.4315C30.1925 49.6826 29.9461 49.129 29.9461 48.5918C29.9461 47.6963 30.8262 47.045 31.7239 47.045C32.0759 47.045 32.3927 47.0939 32.6744 47.1916C32.7624 47.2241 33.0616 47.3381 33.1144 47.3381C33.1496 47.3381 33.2024 47.3055 33.2904 47.2079H33.6073L33.7657 48.6406H33.4136C33.0968 47.8754 32.5864 47.4032 31.8647 47.4032C31.3014 47.4032 30.879 47.794 30.879 48.2336C30.879 48.5104 30.967 48.6894 31.231 48.9174C31.3718 49.0314 31.5655 49.1779 31.8119 49.3244L32.7448 49.8943C33.044 50.0734 33.3256 50.2524 33.5545 50.4967C33.7833 50.7572 33.9769 51.0502 34.0473 51.4084ZM10.7426 51.4084L10.6722 52.1411C10.6546 52.2062 10.6546 52.4016 10.6546 52.5481C10.6546 52.9226 11.2178 52.9226 11.5699 52.9226V53.2319H9V52.9226C10.1089 52.8737 10.1089 52.8249 10.1969 51.7829L10.2321 51.3921L10.5138 48.1847C10.549 47.6149 10.4433 47.6149 9.59846 47.566V47.2567H11.7811L13.7173 51.3921L13.8581 51.7015L14.0165 51.3921L15.9703 47.2567H18.1177V47.566C17.8537 47.566 17.6953 47.566 17.5545 47.5823C17.4312 47.6149 17.3432 47.6312 17.2904 47.68C17.1848 47.7777 17.1672 47.9894 17.2024 48.4452L17.4136 51.4084L17.4488 51.9457C17.5016 52.7272 17.5193 52.9714 18.4873 52.9388V53.2482H15.3366V52.9388C15.5655 52.9226 15.8999 52.9063 16.1111 52.8412C16.2871 52.776 16.3927 52.6783 16.3927 52.4667C16.3927 52.3853 16.3575 52.1085 16.3575 52.0271L16.3223 51.4247L16.1111 48.1684L14.5622 51.4247L13.6997 53.2645H13.3828L12.538 51.4247L11.0418 48.1684L10.7426 51.4084Z" fill="black"/>
</g>
<defs>
<clipPath id="clip0_419_5026">
<rect width="64" height="26" fill="white" transform="translate(9 27.5)"/>
</clipPath>
</defs>
</svg>
