<svg width="82" height="81" viewBox="0 0 82 81" fill="none" xmlns="http://www.w3.org/2000/svg">
<rect width="82" height="81" rx="40.5" fill="white" fill-opacity="0.2"/>
<rect x="0.5" y="0.5" width="81" height="80" rx="40" stroke="black" stroke-opacity="0.13"/>
<path d="M18.0312 34.3696C18.0157 34.3954 18.0001 35.503 18.0053 36.827C18.0053 39.0473 18.0157 39.2431 18.0936 39.3049C18.1612 39.3512 18.369 39.3667 18.8367 39.3564L19.4863 39.3409L19.5019 38.5733C19.5071 38.1097 19.5382 37.7748 19.5746 37.7336C19.6162 37.6821 19.9384 37.6667 21.0556 37.6667C22.4691 37.6667 22.4795 37.6667 22.5938 37.7851C22.7497 37.9448 23.3421 38.6094 23.6176 38.9288C23.9969 39.377 23.9657 39.3667 24.8284 39.3667C25.4467 39.3667 25.5922 39.3512 25.5922 39.2946C25.5922 39.2534 25.3324 38.903 25.0206 38.5115C24.7036 38.1149 24.4542 37.7645 24.4594 37.7336C24.4698 37.6976 24.6153 37.5585 24.7868 37.4194C24.9583 37.2854 25.1194 37.1257 25.1505 37.0639C25.1817 37.0073 25.2285 36.9248 25.2597 36.8888C25.2908 36.8476 25.3584 36.6827 25.4052 36.5179C25.4935 36.2294 25.4935 36.2036 25.4052 35.8481C25.2337 35.1681 24.9271 34.7303 24.5062 34.5602C23.8774 34.313 23.9605 34.3181 20.9257 34.3181C19.1433 34.3181 18.052 34.3387 18.0312 34.3696ZM23.7423 35.7142C23.9242 35.9254 23.919 36.1418 23.7267 36.3324L23.5708 36.4818L21.5805 36.4715L19.5902 36.456L19.5746 36.0027L19.559 35.5545H23.6072L23.7423 35.7142ZM30.4095 34.4366C30.3471 34.5036 30.0977 34.8436 29.8534 35.1939C29.2298 36.0851 28.9856 36.4354 28.5855 36.997C28.3152 37.3782 27.5202 38.5012 27.0785 39.1349C27.0421 39.1812 27.0525 39.2327 27.0993 39.2843C27.1564 39.3564 27.2811 39.3667 27.9775 39.3564L28.7881 39.3409L29.1259 38.8361L29.4637 38.3364L31.3864 38.3467L33.3091 38.3621L33.5534 38.697C33.6885 38.8824 33.8652 39.1091 33.9483 39.1967L34.099 39.3667H34.8629C35.4761 39.3667 35.6216 39.3512 35.6216 39.2946C35.6216 39.2534 35.4761 39.0215 35.2994 38.7794C34.8889 38.2179 34.4368 37.5842 33.9639 36.9197C33.7612 36.6363 33.569 36.3633 33.5326 36.3169C33.4962 36.2654 33.3611 36.0748 33.2312 35.8894C33.1013 35.7039 32.8415 35.3433 32.6492 35.0806C32.4517 34.823 32.2958 34.5963 32.2958 34.5757C32.2958 34.5602 32.249 34.4933 32.1919 34.4315C32.088 34.3233 32.0412 34.3181 31.3033 34.3181C30.555 34.3181 30.5186 34.3233 30.4095 34.4366ZM31.7606 36.1315C31.9061 36.3376 32.1243 36.6621 32.2594 36.8527C32.3894 37.0382 32.4829 37.2082 32.4673 37.2236C32.4257 37.2648 30.3991 37.2648 30.3575 37.2236C30.3419 37.2082 30.4354 37.0382 30.5654 36.8527C30.7005 36.6621 30.9187 36.3376 31.0642 36.1315C31.2201 35.9048 31.3552 35.7606 31.4124 35.7606C31.4696 35.7606 31.6047 35.9048 31.7606 36.1315ZM37.0091 34.3542C36.9883 34.3696 36.9727 35.4824 36.9727 36.8218C36.9727 38.9855 36.9831 39.2637 37.0559 39.3409C37.1234 39.4079 37.2481 39.4182 37.773 39.4079L38.4018 39.3924L38.4278 37.6409C38.4537 36.0078 38.4693 35.7606 38.5785 35.7606C38.62 35.7606 38.8539 35.9357 39.2332 36.25C39.3476 36.3479 39.545 36.5076 39.6749 36.6106C39.8049 36.7085 40.0907 36.9351 40.3141 37.1154C40.5376 37.2906 40.8701 37.5482 41.0468 37.6924C41.6756 38.187 42.1433 38.563 42.1693 38.5939C42.1849 38.6094 42.4187 38.8 42.6941 39.0215L43.193 39.4182H43.9933C44.5493 39.4182 44.8195 39.3976 44.8611 39.3564C44.9079 39.31 44.9235 38.697 44.9235 36.9197V34.5396L44.804 34.4315C44.6948 34.3284 44.6273 34.3181 44.0816 34.3181C43.749 34.3181 43.4424 34.3336 43.3957 34.349C43.3229 34.3748 43.3125 34.5654 43.3125 35.946C43.3125 37.2957 43.3021 37.5173 43.2346 37.543C43.1878 37.5636 43.0111 37.4606 42.7825 37.2751C42.5746 37.1051 42.1953 36.8012 41.9354 36.59C41.6808 36.3839 41.3534 36.1212 41.2079 36.0078C41.0676 35.8945 40.8546 35.7245 40.7402 35.6318C40.5116 35.436 40.257 35.2351 39.6749 34.7869C39.4567 34.6221 39.254 34.4469 39.2124 34.4005C39.1501 34.3284 38.9994 34.3181 38.09 34.3181C37.5132 34.3181 37.0247 34.3336 37.0091 34.3542ZM47.8076 34.4263C47.4906 34.5345 47.2515 34.756 47.106 35.0754C47.0021 35.3072 46.9969 35.4051 46.9969 36.7857V38.2539L47.158 38.5733C47.2775 38.8155 47.3763 38.934 47.5893 39.0782C47.74 39.1812 47.9011 39.2637 47.9479 39.2637C47.9946 39.2637 48.0518 39.2843 48.0674 39.3152C48.0882 39.3461 49.0028 39.3667 50.6345 39.3667C53.477 39.3667 53.3263 39.3873 53.7317 38.9803C54.059 38.6558 54.1214 38.4188 54.1214 37.4606C54.1214 36.7394 54.111 36.6415 54.0279 36.5642C53.9395 36.4869 53.7368 36.4818 51.9596 36.4921L49.9901 36.5076L49.9745 36.9506C49.9641 37.3061 49.9797 37.4142 50.0421 37.4812C50.1148 37.5533 50.3019 37.5636 51.4244 37.5636C52.5001 37.5636 52.7287 37.5739 52.7495 37.6358C52.7807 37.7233 52.6975 37.9036 52.5468 38.0633L52.4429 38.1818H50.4786C48.7222 38.1818 48.5143 38.1715 48.4519 38.0942C48.3948 38.0324 48.3792 37.7851 48.3792 37.0279C48.3792 36.0748 48.3844 36.0388 48.4987 35.8894C48.7585 35.5597 48.7689 35.5597 50.7488 35.5545C52.7287 35.5545 52.6612 35.5442 52.7443 35.8791C52.7963 36.0851 52.9106 36.1212 53.4822 36.1212C54.0486 36.1212 54.1214 36.0903 54.1214 35.843C54.1214 35.3175 53.6381 34.5757 53.238 34.4933C53.1652 34.4778 53.0249 34.4418 52.9262 34.416C52.8171 34.3851 51.7829 34.3593 50.4058 34.3542C48.3584 34.3439 48.0362 34.3542 47.8076 34.4263ZM57.707 34.3696L56.3819 34.3954L56.3663 36.8166C56.3559 39.0473 56.3611 39.2431 56.4443 39.2997C56.5118 39.3512 57.2601 39.3667 59.7649 39.3667C62.6645 39.3667 62.9971 39.3564 63.0283 39.2843C63.0959 39.1091 63.0595 38.4136 62.9763 38.2952L62.8984 38.1818H60.4352C58.05 38.1818 57.9669 38.1767 57.9149 38.0839C57.8421 37.9448 57.8473 37.6512 57.9305 37.5482C57.9876 37.4709 58.1955 37.4606 60.1234 37.4503L62.254 37.4348L62.2696 36.9506C62.28 36.6415 62.2644 36.4457 62.2228 36.3994C62.1761 36.3375 61.7967 36.3272 60.0455 36.3272C57.6966 36.3272 57.8629 36.353 57.8629 35.9872C57.8629 35.8842 57.8889 35.7606 57.9149 35.7039C57.9669 35.6112 58.05 35.606 60.482 35.606C62.7269 35.606 63.0023 35.5957 63.0283 35.5236C63.0439 35.4772 63.0595 35.2557 63.0595 35.0239C63.0595 34.6427 63.0439 34.586 62.9296 34.4572L62.7945 34.3181L60.9133 34.3284C59.8792 34.3336 58.4345 34.3542 57.707 34.3696ZM18.0053 41.7467V44.2092C18.0001 46.3883 18.0105 46.5583 18.0936 46.6201C18.1612 46.6665 18.369 46.682 18.8367 46.6717L19.4863 46.6562L19.5123 45.8319C19.5279 45.3786 19.559 44.9768 19.5798 44.9407C19.611 44.8944 19.9644 44.8789 21.0453 44.8789H22.4691L22.9524 45.4301C23.2174 45.7341 23.5864 46.141 23.7734 46.3316L24.1164 46.682H24.8751C25.296 46.682 25.6494 46.6614 25.665 46.6356C25.6806 46.6098 25.613 46.4913 25.5143 46.3677C25.4156 46.2441 25.1557 45.9144 24.9427 45.6413C24.7296 45.3683 24.5321 45.1313 24.501 45.1107C24.4074 45.0541 24.4438 44.8841 24.5633 44.8222C24.6309 44.7862 24.714 44.7295 24.7504 44.6934C24.7868 44.6522 24.8595 44.5956 24.9063 44.5595C25.0882 44.4307 25.2805 44.1165 25.3844 43.7919C25.4883 43.4725 25.4935 43.4519 25.4052 43.0758C25.2701 42.4937 25.057 42.1434 24.6932 41.9013C24.2931 41.6334 24.2671 41.6334 21.0245 41.6334H18.0053V41.7467ZM23.7683 42.9522C23.9242 43.148 23.9086 43.3643 23.7267 43.5446L23.5708 43.694L21.5805 43.6837L19.5902 43.6683L19.5746 43.2407L19.559 42.8183H23.6643L23.7683 42.9522ZM28.3672 41.7261C28.1178 41.8292 27.8683 42.0249 27.7696 42.2052C27.5877 42.5349 27.5669 42.6843 27.5669 44.0392C27.5669 45.528 27.6085 45.8268 27.8631 46.1616C28.0346 46.3883 28.1074 46.445 28.3776 46.5789C28.5855 46.682 28.6634 46.682 31.4176 46.6665C34.4472 46.651 34.39 46.6562 34.7746 46.3832C34.8629 46.3213 34.9928 46.1823 35.0604 46.0741C35.1799 45.8835 35.1799 45.868 35.1799 44.2607C35.1799 42.7358 35.1747 42.6277 35.076 42.4576C34.9357 42.2104 34.6914 41.9476 34.5096 41.8549C34.099 41.6437 33.9847 41.6334 31.2305 41.6385C28.8609 41.6385 28.5595 41.6488 28.3672 41.7261ZM33.6365 42.9728C33.7457 43.0758 33.7509 43.1171 33.7509 44.0753C33.7509 44.9819 33.7405 45.085 33.6521 45.1931L33.5534 45.3168L31.4436 45.3322C30.0197 45.3425 29.2974 45.3271 29.2298 45.291C29.1311 45.2395 29.1259 45.1828 29.1259 44.1577C29.1259 43.1428 29.1311 43.0707 29.2298 42.9728C29.3286 42.8749 29.4013 42.8698 31.428 42.8698C33.465 42.8698 33.5274 42.8749 33.6365 42.9728ZM36.6609 41.7055C36.6609 41.7725 36.8376 42.0455 37.2845 42.6586C37.9601 43.5858 38.3186 44.0907 38.5317 44.3946C38.6616 44.5801 38.7915 44.7604 38.8175 44.7913C38.8487 44.8274 38.9422 44.9562 39.0306 45.085C39.3943 45.6156 39.8568 46.2595 40.0231 46.4604L40.1998 46.682H41.7847L42.2109 46.0998C42.663 45.4765 42.8708 45.1931 43.5516 44.2349C44.2219 43.3025 44.6584 42.6946 44.991 42.2413C45.4327 41.6385 45.4275 41.6334 44.409 41.6334C43.51 41.6334 43.51 41.6334 43.2969 41.9682C43.2242 42.0816 43.0267 42.3649 42.8604 42.5967C42.6941 42.8286 42.2836 43.4107 41.951 43.8846C41.1612 45.0025 40.9585 45.2653 40.8805 45.2653C40.8182 45.2653 40.6363 45.0231 39.7737 43.7713C39.5346 43.4313 39.2436 43.014 39.1189 42.844C38.9994 42.674 38.7863 42.3752 38.6512 42.1846C38.2355 41.5973 38.3134 41.6334 37.43 41.6334C36.8168 41.6334 36.6609 41.6488 36.6609 41.7055ZM47.1892 41.7467C47.1372 41.9425 47.1528 46.2544 47.21 46.3935C47.3191 46.6871 47.2827 46.682 50.7021 46.6717L53.8356 46.6562L53.8512 46.0895C53.8616 45.6001 53.8512 45.5177 53.7732 45.461C53.7057 45.4095 53.1392 45.3941 51.2893 45.3941C49.4237 45.3941 48.8729 45.3786 48.8001 45.3271C48.7326 45.2756 48.7118 45.2034 48.7274 44.9819L48.7429 44.6986L50.9515 44.6728L53.16 44.6471L53.1756 44.2092C53.1964 43.5086 53.4095 43.5652 50.9203 43.5498C49.325 43.5395 48.7897 43.5189 48.7585 43.4725C48.7378 43.4365 48.717 43.3025 48.717 43.1686C48.717 42.978 48.7378 42.911 48.8157 42.8698C48.8833 42.8389 49.7875 42.8183 51.388 42.8183H53.8616V42.2876C53.8616 41.9425 53.8408 41.7364 53.7992 41.6952C53.7524 41.6488 52.9418 41.6334 50.4786 41.6334H47.2204L47.1892 41.7467ZM56.3923 41.6695C56.3715 41.6849 56.3559 42.7822 56.3559 44.1062C56.3559 46.3883 56.3611 46.5171 56.4547 46.5995C56.5326 46.6717 56.6469 46.682 57.1666 46.6717L57.785 46.6562L57.8006 45.8629C57.8058 45.3838 57.8369 45.0386 57.8681 44.9974C57.9149 44.9459 58.2371 44.9304 59.3699 44.9304H60.8094L61.4018 45.6104C61.7292 45.9865 62.0877 46.378 62.1969 46.4862L62.3995 46.682H63.1686C63.6311 46.682 63.9481 46.6614 63.9689 46.6304C64.0001 46.5841 63.7558 46.2235 63.6051 46.0895C63.5739 46.0586 63.4077 45.8526 63.231 45.6259C63.0595 45.3992 62.8776 45.1828 62.8308 45.1416C62.7009 45.0334 62.7321 44.8892 62.9088 44.7965C63.1166 44.6934 63.3765 44.4359 63.5636 44.1525C63.6987 43.9362 63.7091 43.8949 63.7039 43.3849C63.6987 42.7307 63.5999 42.468 63.1946 42.0661C62.7477 41.6231 62.8256 41.6334 59.3855 41.6334C57.759 41.6334 56.4079 41.6488 56.3923 41.6695ZM62.0721 42.9574C62.1605 43.0707 62.1813 43.1428 62.1501 43.3077C62.0929 43.6992 62.1449 43.694 59.9156 43.694C58.4449 43.694 57.9201 43.6786 57.8733 43.6322C57.8058 43.5652 57.785 42.911 57.8473 42.8543C57.8629 42.8337 58.7983 42.8183 59.9208 42.8183H61.963L62.0721 42.9574Z" fill="black"/>
</svg>
