<svg width="82" height="81" viewBox="0 0 82 81" fill="none" xmlns="http://www.w3.org/2000/svg">
<rect width="82" height="81" rx="40.5" fill="white" fill-opacity="0.2"/>
<rect x="0.5" y="0.5" width="81" height="80" rx="40" stroke="black" stroke-opacity="0.13"/>
<g clip-path="url(#clip0_419_5026)">
<path fill-rule="evenodd" clip-rule="evenodd" d="M40.9583 48.937C53.2826 48.937 63.2748 45.1646 63.2748 40.4998C63.2748 35.835 53.2826 32.0482 40.9583 32.0482C28.6197 32.0482 18.6274 35.835 18.6274 40.4998C18.6274 45.1648 28.6197 48.937 40.9583 48.937Z" fill="#425E99"/>
<path fill-rule="evenodd" clip-rule="evenodd" d="M40.9583 48.0732C29.1234 48.0732 19.5059 44.704 19.5059 40.4998C19.5059 36.3102 29.1234 32.8978 40.9583 32.8978C52.8219 32.8978 62.425 36.3102 62.425 40.4998C62.425 44.704 52.8219 48.0732 40.9583 48.0732Z" fill="white"/>
<path fill-rule="evenodd" clip-rule="evenodd" d="M40.9582 47.483C52.4332 47.483 61.7481 44.3586 61.7481 40.4998C61.7481 36.6557 52.4332 33.5314 40.9582 33.5314C29.469 33.5314 20.1824 36.6557 20.1824 40.4998C20.1826 44.3586 29.469 47.483 40.9582 47.483Z" fill="#425E99"/>
<path fill-rule="evenodd" clip-rule="evenodd" d="M46.401 41.8963C47.3799 40.9749 47.9267 40.0103 49.338 40.0246C50.1873 40.039 50.4031 40.7157 50.547 41.0038L52.4043 37.8652H53.5417L50.4608 43.322C50.4031 43.437 50.2589 43.653 50.2735 43.8258C50.3029 44.0992 50.6482 44.0274 50.5186 44.0274C51.1376 43.9985 52.2748 42.818 52.5485 42.5302C52.6058 42.4578 52.7069 42.3285 52.7642 42.3285C52.822 42.3285 52.9372 42.386 52.9372 42.4724C52.9372 42.5302 52.8077 42.7459 52.7069 42.8755C52.1309 43.5955 51.1808 44.704 50.101 44.7328C49.5683 44.7328 49.3664 44.5169 49.2946 44.0995C49.05 44.3152 48.2147 44.6896 47.3654 44.6896C46.6597 44.6753 46.3717 44.2577 46.228 43.9267C46.0984 43.6532 46.0407 43.2501 46.1414 42.8471C45.7526 43.0487 45.3928 43.0774 44.8744 43.063C44.2695 43.0485 43.895 42.775 43.7082 42.0693C43.0171 43.3365 42.9879 43.3795 42.2828 44.7042H41.059L42.6283 42.0407C42.8302 41.6806 42.9309 41.3928 43.0025 41.0907C43.0459 40.9176 42.9164 40.7592 42.729 40.7451C42.5276 40.7451 42.1968 40.9468 41.8797 41.2489C41.8797 41.2489 41.0735 42.1128 40.4831 42.991C39.9214 43.8262 38.957 44.7763 37.906 44.7763C37.1428 44.7763 36.4517 44.3589 36.3078 43.5525C36.3078 43.5525 36.2358 43.7396 35.559 44.1284C35.5015 44.157 35.3576 44.2434 35.3146 44.2147C35.1848 44.0997 35.1129 43.9556 35.0984 43.8546C35.1416 43.8692 35.228 43.7971 35.5015 43.5811C36.0341 43.1781 36.1494 42.8609 36.1494 42.8609C36.2787 42.5874 36.5095 42.1555 36.6677 41.8531C37.0999 40.9892 37.8483 40.111 39.072 40.0678C39.2737 40.0678 39.3312 40.1542 39.3744 40.2263C39.4894 40.3127 39.4465 40.4855 39.4465 40.4855C38.5826 40.615 37.9924 41.1188 37.6323 41.6085C37.4166 41.9252 37.186 42.4435 37.1428 42.8177C37.0565 43.4656 37.3588 43.8973 37.8051 43.9983C38.6401 44.1279 39.3312 43.5232 39.8784 42.5874C40.0226 42.3426 40.1233 41.709 40.1233 41.3634C40.1233 41.0179 39.9359 40.658 39.792 40.5139C39.792 40.2692 39.9502 40.1108 40.1373 40.1108C40.1949 40.1108 40.2526 40.1108 40.3101 40.1683C40.5982 40.4563 40.7566 41.0036 40.7566 41.4209C40.7566 41.5651 40.7566 41.709 40.7278 41.8531C41.3325 41.1188 42.0954 40.1685 42.6861 39.9814C42.8011 39.9239 42.9164 39.9239 43.0314 39.9239C44.1112 39.8951 43.9673 40.8742 43.9673 40.8742C44.5429 40.212 44.9463 39.9671 45.4789 39.9958C46.055 40.0246 46.2564 40.4279 46.2564 40.7446C46.2419 41.1188 45.9688 41.5508 45.4939 41.5651C45.0758 41.5651 44.8312 41.3634 44.7016 40.9892C44.4282 41.0902 44.2988 41.2773 44.2411 41.6515C44.1544 42.1266 44.5145 42.501 44.9751 42.501C45.7672 42.5013 46.113 42.1555 46.401 41.8963ZM47.2647 35.6911C47.2647 36.1519 45.6519 37.0301 44.284 37.0301C42.1534 37.0301 39.9362 36.0078 38.9143 35.7775C37.8056 35.5183 36.7978 35.3024 36.0057 35.3024C33.2269 35.3024 31.9886 36.4975 32.0464 37.5917C32.0752 38.0379 32.4349 38.326 32.9678 38.225C33.5439 38.1243 34.35 37.5771 34.5517 37.102C34.5948 37.0013 34.7101 36.9867 34.7533 37.0156C34.8397 37.0876 34.8108 37.1884 34.8108 37.1884C34.7387 37.7499 33.8749 39.3049 32.3776 39.3049C31.5426 39.3049 30.9811 38.5274 30.9954 37.7642C31.0097 36.3388 32.464 34.899 36.0489 34.899C36.7255 34.899 37.4886 34.9566 38.3239 35.1007C39.2883 35.2735 41.6926 35.6766 43.6507 35.7054C44.3709 35.7054 45.2923 35.7343 46.0409 35.619C46.8327 35.4895 46.66 35.4606 46.9769 35.4606C47.2647 35.4606 47.2647 35.5758 47.2647 35.6911Z" fill="white"/>
<path fill-rule="evenodd" clip-rule="evenodd" d="M49.3957 40.7014C48.8914 40.6439 48.2578 41.0758 47.7397 41.7094C47.4806 42.0261 47.2071 42.6309 47.1637 42.9907C47.1064 43.3508 47.2071 43.7107 47.3367 43.8114C47.4663 43.9121 48.0423 44.2145 48.9349 43.3076C49.4387 42.8036 49.9281 41.9829 49.9281 41.9829L49.7697 41.9395C50.072 41.3782 50.014 40.7732 49.3957 40.7014Z" fill="#425E99"/>
<path fill-rule="evenodd" clip-rule="evenodd" d="M38.8708 39.0025C38.8708 39.161 39.0866 39.2906 39.2739 39.3051C39.2307 39.4633 39.245 39.5354 39.1732 39.5211C38.7413 39.5211 38.5685 39.1035 38.5685 39.1035C37.9929 39.2042 37.4313 39.2762 36.2937 39.3915C33.4286 44.0276 32.536 44.7908 30.7794 44.7908C29.5268 44.7908 28.4183 43.9701 28.3894 42.5015C28.3748 41.609 29.0948 40.5146 30.4338 40.1833C30.5923 40.1833 30.6498 40.2411 30.6498 40.3275C30.6498 40.3852 30.5923 40.457 30.4625 40.5146C30.0737 40.6587 29.3972 41.4216 29.3972 42.1273C29.3972 42.66 29.7284 43.2504 30.2897 43.3797C30.4482 43.4231 30.5923 43.4086 30.7362 43.4086C32.1327 43.4086 33.7021 41.8393 35.401 39.4492C35.1275 39.4636 33.9612 39.5934 33.6732 39.9244C33.5438 40.0251 33.4575 39.9676 33.4286 39.8523C33.4286 39.8234 33.4718 39.7227 33.5152 39.665C33.9758 39.1466 35.358 39.0316 35.689 38.9884C36.9848 37.0015 38.6549 35.7632 39.0004 35.7777C39.0579 35.7777 39.1878 35.8641 39.13 36.008C39.1155 36.0369 38.9716 36.1951 38.9143 36.2383C38.6262 36.4975 37.6471 37.1311 36.5818 38.9307C37.4457 38.8875 38.4535 38.7147 38.4535 38.7147C38.4535 38.7147 38.3959 38.5276 38.3959 38.3691C38.4391 37.7501 38.799 37.3757 39.2598 37.4477C39.5192 37.4909 39.6918 37.7069 39.6918 37.9372C39.6918 38.1821 39.5047 38.5419 39.3173 38.7147C39.1875 38.8152 39.0434 38.9161 38.8708 39.0025Z" fill="white"/>
<path fill-rule="evenodd" clip-rule="evenodd" d="M38.7986 38.6856C38.7986 38.6856 38.9427 38.7001 39.1585 38.4553C39.2449 38.3689 39.389 38.1097 39.3601 37.937C39.3456 37.8506 39.3026 37.7499 39.2019 37.7642C38.9857 37.8076 38.8561 37.9083 38.7986 38.1243C38.7268 38.3546 38.7556 38.5131 38.7986 38.6856Z" fill="#425E99"/>
</g>
<defs>
<clipPath id="clip0_419_5026">
<rect width="46" height="46" fill="white" transform="translate(18 17.5)"/>
</clipPath>
</defs>
</svg>
