<svg width="82" height="81" viewBox="0 0 82 81" fill="none" xmlns="http://www.w3.org/2000/svg">
<rect width="82" height="81" rx="40.5" fill="white" fill-opacity="0.2"/>
<rect x="0.5" y="0.5" width="81" height="80" rx="40" stroke="black" stroke-opacity="0.13"/>
<g clip-path="url(#clip0_419_5026)">
<path d="M17 38.2507C17 36.6112 17.9911 35.5037 19.8645 35.5037H32.0255V37.829H20.2299C19.8995 37.829 19.6061 38.0037 19.6061 38.5167V42.3941C19.6061 42.8652 19.798 43.1692 20.4015 43.1692H28.7088C29.1463 43.1692 29.484 43.0096 29.484 42.4169V41.5088H24.6207V39.2937H32.0255V42.8576C32.0255 44.5636 30.8203 45.4964 28.9266 45.4964H19.8848C18.0557 45.4964 17.0018 44.4762 17.0018 42.7703L17 38.2507ZM42.8743 45.4964L47.0288 37.9183V45.4964H49.6331V35.5037H45.628L41.6672 42.681L37.7064 35.5037H33.7032V45.4964H36.3074V37.9183L40.462 45.4964H42.8743ZM65 45.4964H54.1106C52.2779 45.4964 51.2277 44.4762 51.2277 42.7703V38.2507C51.2277 36.6112 52.2151 35.5037 54.0885 35.5037H65.0018V38.0151H54.4558C54.1254 38.0151 53.8301 38.188 53.8301 38.701V42.2079C53.8301 42.681 54.0239 42.983 54.6274 42.983H65.0018L65 45.4964Z" fill="#CF4037"/>
</g>
<defs>
<clipPath id="clip0_419_5026">
<rect width="48" height="10" fill="white" transform="translate(17 35.5)"/>
</clipPath>
</defs>
</svg>
