<svg width="81" height="80" viewBox="0 0 81 80" fill="none" xmlns="http://www.w3.org/2000/svg">
<rect width="81" height="80" rx="40" fill="white" fill-opacity="0.2"/>
<rect x="0.5" y="0.5" width="80" height="79" rx="39.5" stroke="black" stroke-opacity="0.13"/>
<g clip-path="url(#clip0_419_5026)">
<path fill-rule="evenodd" clip-rule="evenodd" d="M19.9146 41.3941H11.0265C10.2307 41.3941 9.87709 40.9479 9.87709 39.9922V37.8578H8.5V39.9922C8.5 41.3733 9.46171 42.1339 10.38 42.1339H19.9137L19.9146 41.3941ZM34.2568 37.8578V41.3941H26.1327C25.337 41.3941 24.9834 40.9479 24.9834 39.9922V37.8578H23.6046V39.9922C23.6046 41.3733 24.5671 42.1339 25.4855 42.1339H35.6372V37.8588L34.2568 37.8578ZM51.239 41.3941H41.8721C41.0755 41.3941 40.7219 40.9479 40.7219 39.9922C40.7219 39.0282 41.0755 38.5987 41.8712 38.5987H51.2398V37.8578H41.2248C40.3065 37.8578 39.3439 38.6153 39.3439 39.9922C39.3439 41.3733 40.3065 42.1339 41.2248 42.1339H51.2406L51.239 41.3941ZM70.6191 37.8578C71.5366 37.8578 72.5 38.6153 72.5 39.9922C72.5 41.3733 71.5374 42.1339 70.6191 42.1339H60.3322V37.8588L70.6191 37.8578ZM71.1212 39.9922C71.1212 39.0282 70.7676 38.5987 69.9719 38.5987H61.711V41.393H69.971C70.7667 41.393 71.1212 40.9479 71.1212 39.9922ZM55.1133 42.2501H56.4562V37.7499H55.1133V42.2501Z" fill="black"/>
</g>
<defs>
<clipPath id="clip0_419_5026">
<rect width="64" height="5" fill="white" transform="translate(8.5 37.5)"/>
</clipPath>
</defs>
</svg>
