<svg width="82" height="81" viewBox="0 0 82 81" fill="none" xmlns="http://www.w3.org/2000/svg">
<rect width="82" height="81" rx="40.5" fill="white" fill-opacity="0.2"/>
<rect x="0.5" y="0.5" width="81" height="80" rx="40" stroke="black" stroke-opacity="0.13"/>
<g clip-path="url(#clip0_419_5026)">
<path d="M59.6238 36.3839C59.2542 36.2815 58.8426 36.2331 57.9756 36.1269C54.3872 35.9808 45.5192 35.6385 41.0002 35.6385C36.4814 35.6385 27.6132 35.9806 24.0252 36.1269C23.1578 36.2331 22.7458 36.2815 22.3764 36.3839C21.2482 36.6479 21 37.0499 21 37.8519V43.3483C21 44.1505 21.8658 44.691 22.4626 44.8C23.0598 44.9097 23.4376 44.9536 24.0658 45.013C27.2752 45.2103 34.7212 45.6216 41 45.6281C47.279 45.6222 54.7246 45.2105 57.9342 45.013C58.5622 44.9536 58.9402 44.9095 59.5376 44.8C60.1342 44.6908 61 44.1505 61 43.3483V37.8519C61 37.0499 60.752 36.6479 59.6238 36.3839Z" fill="url(#paint0_linear_419_5026)"/>
<path d="M26.6101 36.6C28.3757 30.5039 34.1771 26.031 41.0637 26.031C47.9305 26.031 53.7201 30.4793 55.5029 36.551C55.5085 36.5724 55.5123 36.5835 55.5185 36.6042C56.5421 36.49 57.4591 36.3138 58.1071 36.1421C58.0953 36.103 58.0923 36.095 58.0821 36.0565C56.0559 28.824 49.2043 23.5018 41.0637 23.5018C32.8957 23.5018 26.0261 28.8585 24.0249 36.1268C24.9251 36.3715 25.5845 36.4742 26.6101 36.6Z" fill="url(#paint1_radial_419_5026)"/>
<path d="M55.4607 44.5898C55.4429 44.644 55.4231 44.7038 55.4139 44.7334C53.5365 50.6591 47.8225 54.9691 41.0639 54.9691C34.2519 54.9691 28.5019 50.5926 26.6701 44.5956C25.5505 44.7923 25.1723 44.8672 24.0659 45.0133C26.1159 52.2105 32.9487 57.4983 41.0639 57.4983C49.1825 57.4983 56.0177 52.2049 58.0639 45.0017C57.0891 44.8822 56.5149 44.7919 55.4607 44.5898Z" fill="url(#paint2_radial_419_5026)"/>
<path d="M26.9705 36.587C27.3955 36.4127 27.8067 36.1348 28.4477 35.956C30.3587 31.0281 35.2855 27.5189 41.0635 27.5189C46.8235 27.5189 51.7381 31.0064 53.6611 35.9105C53.6679 35.9272 53.6749 35.9474 53.6803 35.9599C54.0111 36.0737 54.9857 36.4659 55.2889 36.5971C55.3319 36.5981 55.4237 36.6013 55.5185 36.6039C55.5129 36.5862 55.5077 36.5685 55.5029 36.5507C53.7193 30.481 47.9299 26.0341 41.0635 26.0341C34.1787 26.0341 28.3773 30.505 26.6111 36.5999C26.7131 36.6001 26.9073 36.5914 26.9705 36.587Z" fill="url(#paint3_radial_419_5026)"/>
<path d="M40.9538 26.4463C47.3964 26.4463 53.1074 30.2592 55.2706 36.5441L55.2882 36.5975C55.3218 36.5975 55.4444 36.6019 55.5178 36.6042C55.512 36.5814 55.506 36.5681 55.5022 36.551C53.7186 30.4813 47.9292 26.0344 41.0628 26.0344C34.178 26.0344 28.3766 30.5054 26.6104 36.6003C26.748 36.5981 26.8142 36.5981 26.9702 36.5872C28.9042 30.6205 34.5586 26.4463 40.9538 26.4463Z" fill="white"/>
<path d="M55.0953 44.6072C54.6325 44.8638 54.0563 45.1108 53.5957 45.2551C53.5895 45.2698 53.5633 45.3349 53.5577 45.3502C51.5653 50.1187 46.7219 53.4847 41.0635 53.4847C35.3695 53.4847 30.5013 50.0778 28.5321 45.262C28.0023 45.1161 27.2103 44.7576 26.9105 44.608C26.7983 44.6026 26.7379 44.5994 26.6689 44.5958C28.5007 50.5921 34.2517 54.9693 41.0637 54.9693C47.8449 54.9693 53.5737 50.6322 55.4323 44.6782C55.4363 44.6667 55.4569 44.6012 55.4613 44.5901C55.3539 44.5943 55.1897 44.6072 55.0953 44.6072Z" fill="url(#paint4_radial_419_5026)"/>
<path d="M59.3032 36.7819C58.3528 36.6671 57.7048 36.6794 55.3896 36.6002C55.2844 36.5964 55.1774 36.5933 55.0688 36.5895C50.8708 36.4466 44.5648 36.2556 41 36.2556C37.4354 36.2556 31.1296 36.4466 26.931 36.5895C26.8226 36.5933 26.716 36.5964 26.611 36.6002C24.2954 36.6794 23.6476 36.6671 22.697 36.7819C21.7466 36.8976 21 37.3107 21 38.0132V43.1102C21 43.8131 21.8994 44.3822 22.6968 44.3822C22.6968 44.3822 32.846 45.0041 41 45.0115C49.1542 45.0041 59.3032 44.3822 59.3032 44.3822C60.1006 44.3822 61 43.8131 61 43.1102V38.0132C61 37.3107 60.2536 36.8976 59.3032 36.7819Z" fill="url(#paint5_radial_419_5026)"/>
<path d="M55.0954 44.6072C53.1036 50.4717 47.502 54.5569 41.1746 54.5569C34.7828 54.5569 29.1112 50.804 26.91 44.6072C26.8292 44.6031 26.7492 44.5999 26.6702 44.5953C28.5016 50.5918 34.2536 54.969 41.0658 54.969C47.8802 54.969 53.6328 50.589 55.4626 44.5894C55.3422 44.5949 55.22 44.6015 55.0954 44.6072Z" fill="white"/>
<path d="M55.107 44.6068L55.0948 44.6072C54.632 44.8639 54.0562 45.1108 53.5952 45.2551C53.589 45.2698 53.5628 45.3349 53.5574 45.3502C52.927 46.8593 52.011 48.2277 50.873 49.394C52.6542 48.1015 54.107 46.4686 55.107 44.6068Z" fill="#8C8C8C"/>
<path d="M31.638 49.7733C30.2984 48.5068 29.232 46.9738 28.532 45.2616C28.0022 45.1155 27.2104 44.7569 26.9104 44.6072C27.231 45.2668 27.609 45.8974 28.04 46.4918C28.9218 47.6316 29.9906 48.6476 31.2072 49.5073C31.3488 49.5994 31.4924 49.6879 31.638 49.7733Z" fill="#4D4D4D"/>
<path d="M26.6697 44.5961V44.5957L26.6651 44.5965C25.5491 44.7928 25.1705 44.8681 24.0657 45.0134C24.1547 45.327 24.2533 45.6361 24.3607 45.942L26.6697 44.5961Z" fill="#252525"/>
<path d="M49.1275 39.0393C48.7939 38.2993 48.9123 38.3769 48.1861 38.3578C48.1271 38.338 47.9697 38.338 47.7541 38.338C47.5389 38.338 47.4993 38.338 47.3225 38.3578C46.6361 38.3578 46.7537 38.3189 46.5185 38.8057C46.5185 38.8057 45.3403 41.4343 44.8307 42.5247L44.8111 42.5636C44.7131 42.7579 44.7721 42.7579 44.9287 42.7579H45.9885C46.0673 42.7579 46.1061 42.7198 46.1257 42.6801C46.1257 42.6801 46.2827 42.349 46.4789 41.8819H49.0687C49.2651 42.3299 49.4023 42.6606 49.4023 42.6801C49.4219 42.7386 49.4809 42.7579 49.5395 42.7579H50.6383C50.7953 42.7579 50.8347 42.7783 50.7759 42.6412C50.5793 42.1741 49.3041 39.4476 49.1275 39.0393ZM46.8709 40.9473C47.2045 40.1686 47.5385 39.4093 47.5385 39.3897C47.5583 39.3506 47.5975 39.3311 47.6561 39.3311C47.6759 39.3113 47.7351 39.3113 47.7937 39.3113C47.8331 39.3113 47.8915 39.3113 47.9113 39.3311C47.9503 39.3311 47.9903 39.3506 48.0091 39.4091C48.0883 39.6229 48.3819 40.2853 48.6565 40.9473H46.8709ZM32.7445 38.2991C32.8425 38.2991 32.8623 38.3378 32.8623 38.4158V42.5834C32.8623 42.6803 32.8425 42.72 32.7251 42.72H31.7047C31.5873 42.72 31.5677 42.7001 31.5677 42.5834V38.4158C31.5677 38.3378 31.5873 38.2991 31.6655 38.2991H32.7445ZM30.5667 38.3378C30.6841 38.3378 30.7043 38.3765 30.7043 38.4744V42.6223C30.7043 42.7394 30.6841 42.7589 30.5667 42.7589H29.3697C28.6637 42.7589 28.6047 42.7589 28.3695 42.3698C27.8789 41.6105 26.4071 39.371 26.4071 39.371V42.6227C26.4071 42.74 26.3875 42.7591 26.2701 42.7591H25.3869C25.2693 42.7591 25.2495 42.74 25.2495 42.6227V38.4744C25.2495 38.3769 25.2693 38.3378 25.3869 38.3378H26.4071C27.1723 38.3378 27.2703 38.3185 27.5455 38.708C27.7611 39.0588 29.5465 41.7848 29.5465 41.7848V38.4744C29.5465 38.3769 29.5661 38.3378 29.6841 38.3378H30.5667ZM56.7595 38.3378C56.8779 38.3378 56.8971 38.3765 56.8971 38.4744V42.6223C56.8971 42.7394 56.8775 42.7589 56.7595 42.7589H55.5637C54.8567 42.7589 54.7977 42.7589 54.5625 42.3698C54.0715 41.6099 52.6001 39.3706 52.6001 39.3706V42.6225C52.6001 42.7396 52.5805 42.7587 52.4625 42.7587H51.5801C51.4625 42.7587 51.4423 42.7396 51.4423 42.6225V38.4744C51.4423 38.3769 51.4627 38.3378 51.5801 38.3378H52.6001C53.3653 38.3378 53.4637 38.3185 53.7379 38.708C53.9735 39.0588 55.7395 41.7848 55.7395 41.7848V38.4744C55.7395 38.3769 55.7593 38.3378 55.8771 38.3378H56.7595ZM37.2377 40.0326C38.0227 40.1102 38.5919 40.2464 38.7487 40.9866C38.7487 41.0446 38.7685 41.2395 38.7685 41.4539C38.7685 41.5905 38.7685 41.7652 38.7291 41.9212C38.5921 42.6221 38.0619 42.7583 37.2383 42.7583H33.9415C33.8237 42.7583 33.8039 42.7392 33.8039 42.6221V41.9212C33.8039 41.8041 33.8237 41.7846 33.9415 41.7846H37.2765C37.4141 41.7846 37.4533 41.7459 37.4727 41.6481V41.4728V41.3561C37.4529 41.2778 37.4335 41.1611 37.2571 41.1421C36.8841 41.1226 35.7857 41.0249 35.0397 40.9473C34.0783 40.8499 33.8431 40.4413 33.8037 40.0906C33.7841 39.9735 33.7841 39.8178 33.7841 39.6815C33.7841 39.5645 33.7841 39.3895 33.8037 39.2529C33.9413 38.6294 34.4123 38.3378 35.2359 38.3378H38.4339C38.5521 38.3378 38.5915 38.3576 38.5915 38.4547V39.1755C38.5915 39.2721 38.5521 39.3114 38.4339 39.292H35.2949C35.1575 39.292 35.0989 39.3504 35.0789 39.4865V39.6618C35.0789 39.7593 35.1379 39.8373 35.2751 39.8561C35.6487 39.8958 36.8059 39.9931 37.2377 40.0326ZM42.9075 40.0326C43.6931 40.1102 44.2617 40.2464 44.4189 40.9866C44.4189 41.0446 44.4385 41.2395 44.4385 41.4539C44.4385 41.5905 44.4385 41.7652 44.3993 41.9212C44.2623 42.6221 43.7327 42.7583 42.9083 42.7583H39.6117C39.4939 42.7583 39.4741 42.7392 39.4741 42.6221V41.9212C39.4741 41.8041 39.4939 41.7846 39.6117 41.7846H42.9473C43.0845 41.7846 43.1231 41.7459 43.1433 41.6481V41.4728V41.3561C43.1229 41.2778 43.0841 41.1611 42.9273 41.1421C42.5547 41.1226 41.4559 41.0249 40.7105 40.9473C39.7487 40.8499 39.5333 40.4413 39.4741 40.0906C39.4545 39.9735 39.4545 39.8178 39.4545 39.6815C39.4545 39.5645 39.4545 39.3895 39.4741 39.2529C39.6117 38.6294 40.0825 38.3378 40.9063 38.3378H44.1049C44.2221 38.3378 44.2619 38.3576 44.2619 38.4547V39.1755C44.2619 39.2721 44.2221 39.3114 44.1049 39.292H40.9653C40.8281 39.292 40.7695 39.3504 40.7495 39.4865V39.6618C40.7495 39.7593 40.7889 39.8373 40.9461 39.8561C41.3189 39.8958 42.4761 39.9931 42.9075 40.0326Z" fill="url(#paint6_radial_419_5026)"/>
</g>
<defs>
<linearGradient id="paint0_linear_419_5026" x1="41" y1="24.0038" x2="41" y2="51.6756" gradientUnits="userSpaceOnUse">
<stop offset="0.194" stop-color="white"/>
<stop offset="0.208" stop-color="#F8F8F8"/>
<stop offset="0.366" stop-color="#AEAEAE"/>
<stop offset="0.513" stop-color="#707070"/>
<stop offset="0.647" stop-color="#404040"/>
<stop offset="0.764" stop-color="#1D1D1D"/>
<stop offset="0.86" stop-color="#080808"/>
<stop offset="0.922"/>
</linearGradient>
<radialGradient id="paint1_radial_419_5026" cx="0" cy="0" r="1" gradientUnits="userSpaceOnUse" gradientTransform="translate(29.7715 16.6675) scale(27.8926 27.6842)">
<stop offset="0.202" stop-color="white"/>
<stop offset="0.382" stop-color="#FDFDFD"/>
<stop offset="0.487" stop-color="#F4F4F4"/>
<stop offset="0.573" stop-color="#E6E6E6"/>
<stop offset="0.648" stop-color="#D2D2D2"/>
<stop offset="0.689" stop-color="#C4C4C4"/>
<stop offset="1" stop-color="#333333"/>
</radialGradient>
<radialGradient id="paint2_radial_419_5026" cx="0" cy="0" r="1" gradientUnits="userSpaceOnUse" gradientTransform="translate(97.2733 61.0104) scale(58.09 57.6559)">
<stop offset="0.202" stop-color="white"/>
<stop offset="0.368" stop-color="#E4E4E4"/>
<stop offset="0.594" stop-color="#C4C4C4"/>
<stop offset="1" stop-color="#333333"/>
</radialGradient>
<radialGradient id="paint3_radial_419_5026" cx="0" cy="0" r="1" gradientUnits="userSpaceOnUse" gradientTransform="translate(36.4711 48.2873) scale(17.8338 17.7005)">
<stop offset="0.202" stop-color="white"/>
<stop offset="0.368" stop-color="#E4E4E4"/>
<stop offset="0.594" stop-color="#C4C4C4"/>
<stop offset="1" stop-color="#333333"/>
</radialGradient>
<radialGradient id="paint4_radial_419_5026" cx="0" cy="0" r="1" gradientUnits="userSpaceOnUse" gradientTransform="translate(50.8623 66.3866) scale(33.8388 33.5859)">
<stop offset="0.202" stop-color="white"/>
<stop offset="0.368" stop-color="#E4E4E4"/>
<stop offset="0.594" stop-color="#C4C4C4"/>
<stop offset="1" stop-color="#333333"/>
</radialGradient>
<radialGradient id="paint5_radial_419_5026" cx="0" cy="0" r="1" gradientUnits="userSpaceOnUse" gradientTransform="translate(40.732 27.0041) scale(26.8904 26.6894)">
<stop offset="0.202" stop-color="white"/>
<stop offset="0.397" stop-color="#FDFDFD"/>
<stop offset="0.51" stop-color="#F4F4F4"/>
<stop offset="0.603" stop-color="#E6E6E6"/>
<stop offset="0.684" stop-color="#D2D2D2"/>
<stop offset="0.728" stop-color="#C4C4C4"/>
<stop offset="1" stop-color="#4D4D4D"/>
</radialGradient>
<radialGradient id="paint6_radial_419_5026" cx="0" cy="0" r="1" gradientUnits="userSpaceOnUse" gradientTransform="translate(41.3549 29.6768) scale(18.1122 17.9768)">
<stop offset="0.111" stop-color="#4D4D4D"/>
<stop offset="0.248" stop-color="#494949"/>
<stop offset="0.355" stop-color="#404040"/>
<stop offset="0.451" stop-color="#2F2F2F"/>
<stop offset="0.541" stop-color="#181818"/>
<stop offset="0.611"/>
</radialGradient>
<clipPath id="clip0_419_5026">
<rect width="40" height="34" fill="white" transform="translate(21 23.5)"/>
</clipPath>
</defs>
</svg>
